<?xml version="1.0" encoding="utf-8"?>
<!-- Generator: Adobe Illustrator 23.0.5, SVG Export Plug-In . SVG Version: 6.00 Build 0)  -->
<svg version="1.1" id="Layer_1" xmlns="http://www.w3.org/2000/svg" xmlns:xlink="http://www.w3.org/1999/xlink" x="0px" y="0px"
	 viewBox="0 0 100 100" style="enable-background:new 0 0 100 100;" xml:space="preserve">
<style type="text/css">
	.st0{fill:#E51368;}
	.st1{fill:#FDDD17;}
	.st2{fill:#177FB8;}
	.st3{fill:#0F002A;}
</style>
<g>
	<path class="st0" d="M28.32,78.4c2.91-2.44,5.69-4.93,8.3-7.6c3.82-3.9,7.27-8.07,9.63-13.03c0.25-0.52,0.51-0.83,1.14-0.81
		c10.43,0.38,20.86,0.71,31.01,3.51c1.36,0.38,2.66,0.99,3.99,1.48c0.7,0.26,0.8,0.63,0.4,1.27c-3.1,5.07-6.2,10.15-9.26,15.24
		c-0.41,0.68-0.92,0.64-1.53,0.58c-9.8-0.9-19.61-1.42-29.45-1.29C37.83,77.83,33.1,78.13,28.32,78.4z"/>
	<path class="st1" d="M40.41,22.18c1.57,6.11,3.65,11.67,5.45,17.32c0.81,2.53,1.61,5.11,2.81,7.47c1,1.97,0.36,3.44-0.56,5.03
		c-3.23,5.55-6.82,10.83-11.2,15.56c-3.16,3.41-6.47,6.65-10.03,9.64c-0.63,0.53-1.14,0.79-1.62-0.15
		c-2.67-5.15-5.32-10.31-8.04-15.43c-0.4-0.76-0.33-1.1,0.29-1.69c7.13-6.74,12.94-14.45,17.19-23.33
		c2.05-4.28,3.84-8.64,5.09-13.22C39.87,23.07,40.09,22.8,40.41,22.18z"/>
	<path class="st2" d="M83.01,60.02c-3.28-0.72-6.53-1.5-9.81-2.15c-5.08-1-10.22-1.52-15.4-1.6c-0.88-0.01-1.37-0.31-1.85-1.06
		c-6.33-9.98-10.71-20.78-13.67-32.19c-0.51-1.99-0.53-1.97,1.57-1.98c5.21-0.03,10.43-0.05,15.64-0.12
		c0.98-0.01,1.39,0.26,1.69,1.25c4.14,13.71,10.64,26.1,20.67,36.49C82.24,59.08,82.86,59.33,83.01,60.02z"/>
</g>
</svg>
